<svg width="48" height="46" viewBox="0 0 48 46" fill="none" xmlns="http://www.w3.org/2000/svg">
<rect width="48" height="46" rx="8" fill="#009A49" fill-opacity="0.1"/>
<rect x="0.36" y="0.36" width="47.28" height="45.28" rx="7.64" stroke="#009A49" stroke-opacity="0.5" stroke-width="0.72"/>
<g clip-path="url(#clip0_2_539)">
<path d="M37.125 30.5V19.25C37.125 18.2145 36.2855 17.375 35.25 17.375H29.625C28.5895 17.375 27.75 18.2145 27.75 19.25V30.5C27.75 31.5355 28.5895 32.375 29.625 32.375H35.25C36.2855 32.375 37.125 31.5355 37.125 30.5Z" stroke="#009A49" stroke-linecap="round" stroke-linejoin="round"/>
<path d="M24 32.375H19.3125" stroke="#009A49" stroke-linecap="round" stroke-linejoin="round"/>
<path d="M27.75 28.625H13.6875C13.1902 28.625 12.7133 28.4275 12.3617 28.0758C12.01 27.7242 11.8125 27.2473 11.8125 26.75V15.5C11.8125 15.0027 12.01 14.5258 12.3617 14.1742C12.7133 13.8225 13.1902 13.625 13.6875 13.625H30.5625C31.0598 13.625 31.5367 13.8225 31.8883 14.1742C32.24 14.5258 32.4375 15.0027 32.4375 15.5V17.375" stroke="#009A49" stroke-linecap="round" stroke-linejoin="round"/>
<path d="M31.5 21.125H33.375" stroke="#009A49" stroke-linecap="round" stroke-linejoin="round"/>
</g>
<defs>
<clipPath id="clip0_2_539">
<rect width="30" height="30" fill="white" transform="translate(9 8)"/>
</clipPath>
</defs>
</svg>
