<svg width="48" height="46" viewBox="0 0 48 46" fill="none" xmlns="http://www.w3.org/2000/svg">
<rect width="48" height="46" rx="8" fill="#009A49" fill-opacity="0.1"/>
<rect x="0.36" y="0.36" width="47.28" height="45.28" rx="7.64" stroke="#009A49" stroke-opacity="0.5" stroke-width="0.72"/>
<g clip-path="url(#clip0_2_550)">
<path d="M25.568 15.5797L26.857 14.2906C27.3644 13.7832 27.9667 13.3806 28.6296 13.106C29.2926 12.8313 30.0031 12.6899 30.7207 12.6899C31.4383 12.6899 32.1488 12.8313 32.8118 13.106C33.4747 13.3806 34.077 13.7832 34.5844 14.2906C35.0919 14.798 35.4944 15.4003 35.7691 16.0633C36.0437 16.7262 36.1851 17.4367 36.1851 18.1543C36.1851 18.8719 36.0437 19.5824 35.7691 20.2454C35.4944 20.9083 35.0919 21.5107 34.5844 22.018L31.7273 24.875L30.5156 26.0867C30.0077 26.5947 29.4046 26.9976 28.7408 27.2723C28.077 27.547 27.3656 27.6881 26.6472 27.6876C25.9289 27.687 25.2176 27.5448 24.5543 27.2691C23.8909 26.9934 23.2884 26.5897 22.7813 26.0809C22.2563 25.5561 21.8441 24.9296 21.5701 24.2398C21.296 23.55 21.1658 22.8115 21.1875 22.0696" stroke="#009A49" stroke-linecap="round" stroke-linejoin="round"/>
<path d="M22.432 30.4204L21.143 31.7094C20.6351 32.2174 20.0319 32.6203 19.3682 32.895C18.7044 33.1697 17.9929 33.3108 17.2746 33.3102C16.5562 33.3097 15.845 33.1675 15.1816 32.8918C14.5183 32.6161 13.9158 32.2123 13.4086 31.7036C12.3867 30.6781 11.8135 29.2891 11.8148 27.8414C11.8161 26.3937 12.3919 25.0057 13.4156 23.9821L17.4844 19.9133C17.9917 19.4059 18.5941 19.0033 19.257 18.7286C19.9199 18.454 20.6305 18.3126 21.3481 18.3126C22.0656 18.3126 22.7762 18.454 23.4391 18.7286C24.1021 19.0033 24.7044 19.4059 25.2117 19.9133C25.7388 20.438 26.1528 21.0652 26.4282 21.7561C26.7035 22.4471 26.8343 23.1871 26.8125 23.9305" stroke="#009A49" stroke-linecap="round" stroke-linejoin="round"/>
</g>
<defs>
<clipPath id="clip0_2_550">
<rect width="30" height="30" fill="white" transform="translate(9 8)"/>
</clipPath>
</defs>
</svg>
