<svg width="16" height="16" viewBox="0 0 16 16" fill="none" xmlns="http://www.w3.org/2000/svg">
<path d="M2.25759 3.77791C1.75336 3.21437 1.50125 2.93259 1.49174 2.69312C1.48348 2.48509 1.57287 2.28515 1.73341 2.15259C1.91822 2 2.29632 2 3.05251 2H12.9478C13.704 2 14.0821 2 14.2669 2.15259C14.4274 2.28515 14.5168 2.48509 14.5086 2.69312C14.4991 2.93259 14.247 3.21437 13.7427 3.77791L9.93856 8.02962C9.83805 8.14196 9.7878 8.19813 9.75196 8.26205C9.72018 8.31875 9.69686 8.37978 9.68274 8.44323C9.66682 8.51476 9.66682 8.59013 9.66682 8.74087V12.3056C9.66682 12.436 9.66682 12.5011 9.6458 12.5575C9.62722 12.6073 9.597 12.6519 9.55766 12.6877C9.51314 12.7281 9.45261 12.7524 9.33156 12.8008L7.0649 13.7074C6.81987 13.8054 6.69735 13.8545 6.599 13.834C6.513 13.8161 6.43753 13.765 6.38899 13.6918C6.33349 13.6081 6.33349 13.4762 6.33349 13.2122V8.74087C6.33349 8.59013 6.33349 8.51476 6.31757 8.44323C6.30345 8.37978 6.28013 8.31875 6.24835 8.26205C6.21251 8.19813 6.16226 8.14196 6.06175 8.02962L2.25759 3.77791Z" stroke="#A0A0A0" stroke-width="1.4" stroke-linecap="round" stroke-linejoin="round"/>
</svg>
