<svg width="20" height="20" viewBox="0 0 20 20" fill="none" xmlns="http://www.w3.org/2000/svg">
<path fill-rule="evenodd" clip-rule="evenodd" d="M4.55094 19.5399V6.66622H0.272461V19.5398H4.55094V19.5399ZM2.41215 4.90919C3.90367 4.90919 4.83277 3.91981 4.83277 2.68446C4.80457 1.42165 3.90367 0.460205 2.44012 0.460205C0.976328 0.460244 0.0195312 1.42169 0.0195312 2.6845C0.0195312 3.91985 0.948125 4.90923 2.38398 4.90923L2.41215 4.90919ZM6.91891 19.5399C6.91891 19.5399 6.97504 7.87411 6.91891 6.66626H11.198V8.53321H11.1696C11.7323 7.6547 12.746 6.36396 15.054 6.36396C17.8698 6.36396 19.9804 8.20392 19.9804 12.1582V19.5399H15.702V12.6529C15.702 10.9224 15.0829 9.74149 13.5341 9.74149C12.3523 9.74149 11.648 10.5376 11.3387 11.3071C11.2256 11.581 11.198 11.9658 11.198 12.3505V19.5399H6.91891Z" fill="#414141"/>
</svg>
