<svg width="20" height="20" viewBox="0 0 20 20" fill="none" xmlns="http://www.w3.org/2000/svg">
<g clip-path="url(#clip0_2_469)">
<path fill-rule="evenodd" clip-rule="evenodd" d="M9.99683 0.00646973C7.28187 0.00646973 6.94142 0.0179776 5.87516 0.0666285C4.81111 0.11516 4.08441 0.284168 3.44853 0.531311C2.79115 0.786748 2.23365 1.12858 1.67786 1.68433C1.1221 2.24012 0.780277 2.79762 0.524841 3.455C0.277698 4.09088 0.108691 4.81758 0.0601587 5.88163C0.0115079 6.9479 0 7.28833 0 10.0034C0 12.7183 0.0115079 13.0587 0.0601587 14.125C0.108691 15.189 0.277698 15.9158 0.524841 16.5516C0.780277 17.209 1.1221 17.7665 1.67786 18.3223C2.23365 18.878 2.79115 19.2199 3.44853 19.4754C4.08441 19.7225 4.81111 19.8915 5.87516 19.94C6.94142 19.9886 7.28187 20.0001 9.99683 20.0001C12.7118 20.0001 13.0522 19.9886 14.1185 19.94C15.1826 19.8915 15.9092 19.7225 16.5452 19.4754C17.2025 19.2199 17.76 18.878 18.3158 18.3223C18.8716 17.7665 19.2134 17.209 19.4689 16.5516C19.716 15.9158 19.885 15.189 19.9335 14.125C19.9822 13.0587 19.9937 12.7183 19.9937 10.0034C19.9937 7.28833 19.9822 6.9479 19.9335 5.88163C19.885 4.81758 19.716 4.09088 19.4689 3.455C19.2134 2.79762 18.8716 2.24012 18.3158 1.68433C17.76 1.12858 17.2025 0.786748 16.5452 0.531311C15.9092 0.284168 15.1826 0.11516 14.1185 0.0666285C13.0522 0.0179776 12.7118 0.00646973 9.99683 0.00646973ZM6.66457 10.0034C6.66457 11.8437 8.15647 13.3356 9.99683 13.3356C11.8372 13.3356 13.3292 11.8437 13.3292 10.0034C13.3292 8.16293 11.8372 6.67103 9.99683 6.67103C8.15647 6.67103 6.66457 8.16293 6.66457 10.0034ZM4.86333 10.0034C4.86333 7.16813 7.16167 4.8698 9.99683 4.8698C12.832 4.8698 15.1303 7.16813 15.1303 10.0034C15.1303 12.8385 12.832 15.1368 9.99683 15.1368C7.16167 15.1368 4.86333 12.8385 4.86333 10.0034ZM15.3332 5.86659C15.9957 5.86659 16.5328 5.32953 16.5328 4.66698C16.5328 4.00444 15.9957 3.46734 15.3332 3.46734C14.6707 3.46734 14.1336 4.00444 14.1336 4.66698C14.1336 5.32953 14.6707 5.86659 15.3332 5.86659Z" fill="#414141"/>
</g>
<defs>
<clipPath id="clip0_2_469">
<rect width="20" height="20" fill="white"/>
</clipPath>
</defs>
</svg>
