<svg width="47" height="47" viewBox="0 0 47 47" fill="none" xmlns="http://www.w3.org/2000/svg">
<path d="M16.4936 40.3771C19.9317 42.1815 21.6507 43.0836 23.5 43.0836V23.5002L5.16608 13.8508C5.13908 13.8942 5.11258 13.938 5.08653 13.9823C3.91663 15.969 3.91663 18.4412 3.91663 23.3857V23.6148C3.91663 28.5592 3.91663 31.0316 5.08653 33.0183C6.25642 35.005 8.36328 36.1107 12.5769 38.3219L16.4936 40.3771Z" fill="#009A49"/>
<path opacity="0.7" d="M34.4224 8.67847L30.5058 6.62311C27.0677 4.81887 25.3487 3.91675 23.4994 3.91675C21.6502 3.91675 19.9312 4.81887 16.4931 6.62311L12.5764 8.67847C8.45653 10.8405 6.35073 11.9456 5.16553 13.8507L23.4994 23.5001L41.8334 13.8507C40.648 11.9456 38.5422 10.8405 34.4224 8.67847Z" fill="#009A49"/>
<path opacity="0.5" d="M41.9134 13.9823C41.8874 13.938 41.8609 13.8942 41.8339 13.8508L23.5 23.5002V43.0836C25.3493 43.0836 27.0683 42.1815 30.5063 40.3771L34.423 38.3219C38.6367 36.1107 40.7435 35.005 41.9134 33.0183C43.0833 31.0316 43.0833 28.5592 43.0833 23.6148V23.3857C43.0833 18.4412 43.0833 15.969 41.9134 13.9823Z" fill="#009A49"/>
</svg>
